<mxfile host="app.diagrams.net" modified="2021-03-15T18:02:39.860Z" agent="5.0 (Windows NT 10.0; Win64; x64) AppleWebKit/537.36 (KHTML, like Gecko) Chrome/89.0.4389.82 Safari/537.36" etag="M7e0iw6V1sBzMtj_Q441" version="14.4.8" type="github">
  <diagram id="aXn3OjnOirft_9KjU9u0" name="Page-1">
    <mxGraphModel dx="2057" dy="1087" grid="1" gridSize="10" guides="1" tooltips="1" connect="1" arrows="1" fold="1" page="1" pageScale="1" pageWidth="850" pageHeight="1100" math="0" shadow="0">
      <root>
        <mxCell id="0" />
        <mxCell id="1" parent="0" />
        <mxCell id="9XCm4ptCp412VaQSHnFl-3" value="" style="rounded=0;whiteSpace=wrap;html=1;rotation=-90;" parent="1" vertex="1">
          <mxGeometry x="162.5" y="112.5" width="1015" height="860" as="geometry" />
        </mxCell>
        <mxCell id="9XCm4ptCp412VaQSHnFl-4" value="&lt;font style=&quot;font-size: 24px&quot;&gt;AirZsure&lt;/font&gt;" style="text;html=1;strokeColor=none;fillColor=none;align=center;verticalAlign=middle;whiteSpace=wrap;rounded=0;" parent="1" vertex="1">
          <mxGeometry x="600" y="50" width="120" height="30" as="geometry" />
        </mxCell>
        <mxCell id="9XCm4ptCp412VaQSHnFl-5" value="&lt;font style=&quot;font-size: 22px&quot;&gt;User&lt;/font&gt;" style="shape=umlActor;verticalLabelPosition=bottom;verticalAlign=top;html=1;outlineConnect=0;" parent="1" vertex="1">
          <mxGeometry x="40" y="550" width="80" height="150" as="geometry" />
        </mxCell>
        <mxCell id="9XCm4ptCp412VaQSHnFl-6" value="&lt;font style=&quot;font-size: 22px&quot;&gt;Database&lt;/font&gt;" style="shape=umlActor;verticalLabelPosition=bottom;verticalAlign=top;html=1;outlineConnect=0;" parent="1" vertex="1">
          <mxGeometry x="1210" y="520" width="80" height="150" as="geometry" />
        </mxCell>
        <mxCell id="9XCm4ptCp412VaQSHnFl-7" value="&lt;font style=&quot;font-size: 22px&quot;&gt;Log In&lt;/font&gt;" style="ellipse;whiteSpace=wrap;html=1;" parent="1" vertex="1">
          <mxGeometry x="575" y="230" width="150" height="120" as="geometry" />
        </mxCell>
        <mxCell id="9XCm4ptCp412VaQSHnFl-8" value="&lt;font style=&quot;font-size: 22px&quot;&gt;Draw&lt;/font&gt;" style="ellipse;whiteSpace=wrap;html=1;" parent="1" vertex="1">
          <mxGeometry x="570" y="380" width="165" height="120" as="geometry" />
        </mxCell>
        <mxCell id="9XCm4ptCp412VaQSHnFl-9" value="&lt;font style=&quot;font-size: 22px&quot;&gt;Sketch and notes&lt;/font&gt;" style="ellipse;whiteSpace=wrap;html=1;" parent="1" vertex="1">
          <mxGeometry x="570" y="550" width="170" height="140" as="geometry" />
        </mxCell>
        <mxCell id="9XCm4ptCp412VaQSHnFl-10" value="&lt;font style=&quot;font-size: 22px&quot;&gt;Gestures&lt;/font&gt;" style="ellipse;whiteSpace=wrap;html=1;" parent="1" vertex="1">
          <mxGeometry x="555" y="710" width="190" height="140" as="geometry" />
        </mxCell>
        <mxCell id="9XCm4ptCp412VaQSHnFl-12" value="" style="endArrow=none;html=1;entryX=0;entryY=0.5;entryDx=0;entryDy=0;exitX=1;exitY=0.3333333333333333;exitDx=0;exitDy=0;exitPerimeter=0;" parent="1" target="9XCm4ptCp412VaQSHnFl-7" edge="1" source="9XCm4ptCp412VaQSHnFl-5">
          <mxGeometry width="50" height="50" relative="1" as="geometry">
            <mxPoint x="130" y="320" as="sourcePoint" />
            <mxPoint x="290" y="220" as="targetPoint" />
          </mxGeometry>
        </mxCell>
        <mxCell id="9XCm4ptCp412VaQSHnFl-13" value="" style="endArrow=none;html=1;entryX=0;entryY=0.5;entryDx=0;entryDy=0;exitX=1;exitY=0.3333333333333333;exitDx=0;exitDy=0;exitPerimeter=0;" parent="1" target="9XCm4ptCp412VaQSHnFl-8" edge="1" source="9XCm4ptCp412VaQSHnFl-5">
          <mxGeometry width="50" height="50" relative="1" as="geometry">
            <mxPoint x="130" y="320" as="sourcePoint" />
            <mxPoint x="329.9999999999957" y="180" as="targetPoint" />
          </mxGeometry>
        </mxCell>
        <mxCell id="9XCm4ptCp412VaQSHnFl-14" value="" style="endArrow=none;html=1;entryX=0.013;entryY=0.401;entryDx=0;entryDy=0;entryPerimeter=0;exitX=1;exitY=0.3333333333333333;exitDx=0;exitDy=0;exitPerimeter=0;" parent="1" source="9XCm4ptCp412VaQSHnFl-5" target="9XCm4ptCp412VaQSHnFl-9" edge="1">
          <mxGeometry width="50" height="50" relative="1" as="geometry">
            <mxPoint x="140" y="330" as="sourcePoint" />
            <mxPoint x="329.9999999999957" y="290" as="targetPoint" />
          </mxGeometry>
        </mxCell>
        <mxCell id="9XCm4ptCp412VaQSHnFl-15" value="" style="endArrow=none;html=1;entryX=0;entryY=0.5;entryDx=0;entryDy=0;exitX=1;exitY=0.3333333333333333;exitDx=0;exitDy=0;exitPerimeter=0;" parent="1" source="9XCm4ptCp412VaQSHnFl-5" target="9XCm4ptCp412VaQSHnFl-10" edge="1">
          <mxGeometry width="50" height="50" relative="1" as="geometry">
            <mxPoint x="139" y="330" as="sourcePoint" />
            <mxPoint x="331.55999999999995" y="382.08000000000015" as="targetPoint" />
          </mxGeometry>
        </mxCell>
        <mxCell id="zDRHQb7o4Ke-IUu3kP3v-1" value="&lt;font style=&quot;font-size: 22px&quot;&gt;Account management&lt;/font&gt;" style="ellipse;whiteSpace=wrap;html=1;" vertex="1" parent="1">
          <mxGeometry x="550" y="880" width="200" height="150" as="geometry" />
        </mxCell>
        <mxCell id="zDRHQb7o4Ke-IUu3kP3v-2" value="" style="endArrow=none;html=1;entryX=0;entryY=0.5;entryDx=0;entryDy=0;exitX=1;exitY=0.3333333333333333;exitDx=0;exitDy=0;exitPerimeter=0;" edge="1" parent="1" source="9XCm4ptCp412VaQSHnFl-5" target="zDRHQb7o4Ke-IUu3kP3v-1">
          <mxGeometry width="50" height="50" relative="1" as="geometry">
            <mxPoint x="129" y="320" as="sourcePoint" />
            <mxPoint x="320" y="480" as="targetPoint" />
          </mxGeometry>
        </mxCell>
        <mxCell id="zDRHQb7o4Ke-IUu3kP3v-4" value="" style="endArrow=none;html=1;exitX=1;exitY=0.5;exitDx=0;exitDy=0;entryX=0;entryY=0.3333333333333333;entryDx=0;entryDy=0;entryPerimeter=0;" edge="1" parent="1" source="9XCm4ptCp412VaQSHnFl-9" target="9XCm4ptCp412VaQSHnFl-6">
          <mxGeometry width="50" height="50" relative="1" as="geometry">
            <mxPoint x="530" y="380" as="sourcePoint" />
            <mxPoint x="580" y="330" as="targetPoint" />
          </mxGeometry>
        </mxCell>
        <mxCell id="zDRHQb7o4Ke-IUu3kP3v-5" value="" style="endArrow=none;html=1;exitX=1;exitY=0.5;exitDx=0;exitDy=0;entryX=0;entryY=0.3333333333333333;entryDx=0;entryDy=0;entryPerimeter=0;" edge="1" parent="1" source="9XCm4ptCp412VaQSHnFl-10" target="9XCm4ptCp412VaQSHnFl-6">
          <mxGeometry width="50" height="50" relative="1" as="geometry">
            <mxPoint x="450" y="350" as="sourcePoint" />
            <mxPoint x="660" y="320" as="targetPoint" />
          </mxGeometry>
        </mxCell>
        <mxCell id="zDRHQb7o4Ke-IUu3kP3v-6" value="" style="endArrow=none;html=1;exitX=1;exitY=0.5;exitDx=0;exitDy=0;entryX=0;entryY=0.3333333333333333;entryDx=0;entryDy=0;entryPerimeter=0;" edge="1" parent="1" source="zDRHQb7o4Ke-IUu3kP3v-1" target="9XCm4ptCp412VaQSHnFl-6">
          <mxGeometry width="50" height="50" relative="1" as="geometry">
            <mxPoint x="450" y="440" as="sourcePoint" />
            <mxPoint x="660" y="320" as="targetPoint" />
          </mxGeometry>
        </mxCell>
        <mxCell id="zDRHQb7o4Ke-IUu3kP3v-7" value="&lt;font style=&quot;font-size: 18px&quot;&gt;Innitiate face recognition&lt;/font&gt;" style="ellipse;whiteSpace=wrap;html=1;" vertex="1" parent="1">
          <mxGeometry x="725" y="90" width="120" height="100" as="geometry" />
        </mxCell>
        <mxCell id="zDRHQb7o4Ke-IUu3kP3v-8" value="&lt;font style=&quot;font-size: 18px&quot;&gt;Verify password&lt;/font&gt;" style="ellipse;whiteSpace=wrap;html=1;" vertex="1" parent="1">
          <mxGeometry x="830" y="270" width="110" height="100" as="geometry" />
        </mxCell>
        <mxCell id="zDRHQb7o4Ke-IUu3kP3v-11" value="&lt;font style=&quot;font-size: 15px&quot;&gt;&amp;lt;&amp;lt;include&amp;gt;&amp;gt;&lt;/font&gt;" style="edgeStyle=none;html=1;endArrow=open;verticalAlign=bottom;dashed=1;labelBackgroundColor=none;exitX=0.5;exitY=0;exitDx=0;exitDy=0;entryX=0;entryY=1;entryDx=0;entryDy=0;" edge="1" parent="1" source="9XCm4ptCp412VaQSHnFl-7" target="zDRHQb7o4Ke-IUu3kP3v-7">
          <mxGeometry x="-0.1262" y="15" width="160" relative="1" as="geometry">
            <mxPoint x="709.8199999999999" y="200.00000000000003" as="sourcePoint" />
            <mxPoint x="630.1799999999998" y="236.03" as="targetPoint" />
            <mxPoint as="offset" />
          </mxGeometry>
        </mxCell>
        <mxCell id="zDRHQb7o4Ke-IUu3kP3v-13" value="&lt;font style=&quot;font-size: 15px&quot;&gt;&amp;lt;&amp;lt;include&amp;gt;&amp;gt;&lt;/font&gt;" style="edgeStyle=none;html=1;endArrow=open;verticalAlign=bottom;dashed=1;labelBackgroundColor=none;exitX=0.941;exitY=0.772;exitDx=0;exitDy=0;entryX=0.5;entryY=0;entryDx=0;entryDy=0;exitPerimeter=0;" edge="1" parent="1" source="zDRHQb7o4Ke-IUu3kP3v-7" target="zDRHQb7o4Ke-IUu3kP3v-8">
          <mxGeometry x="0.7017" y="35" width="160" relative="1" as="geometry">
            <mxPoint x="650" y="270" as="sourcePoint" />
            <mxPoint x="762.5" y="182.5" as="targetPoint" />
            <mxPoint as="offset" />
          </mxGeometry>
        </mxCell>
      </root>
    </mxGraphModel>
  </diagram>
</mxfile>
